<svg width="104" height="105" viewBox="0 0 104 105" fill="none" xmlns="http://www.w3.org/2000/svg">
<g filter="url(#filter0_d)">
<path d="M77.7724 18.8795C80.2707 21.1293 82.1445 23.7541 83.1438 26.8788C83.2437 27.2037 83.3349 27.5274 83.4173 27.8501H57.6012C56.3214 27.8501 55.2839 28.8882 55.2839 30.1688C55.2839 31.4493 56.3214 32.4874 57.6012 32.4874H84C83.9914 33.8163 83.8309 35.1488 83.5185 36.503C83.241 37.7062 82.8608 38.8409 82.3778 39.907H63.1628C61.883 39.907 60.8455 40.9451 60.8455 42.2257C60.8455 43.5062 61.883 44.5443 63.1628 44.5443H79.2259C79.1585 44.6141 79.0904 44.6834 79.0216 44.7523L72.0663 51.964H60.382C59.1022 51.964 58.0647 53.0021 58.0647 54.2826C58.0647 55.5632 59.1022 56.6013 60.382 56.6013H67.5939L54.9127 69.7501C54.0383 70.625 53.039 71 52.0396 71C50.9154 71 49.9161 70.625 49.1666 69.7501L40.9164 61.2386H44.6242C45.904 61.2386 46.9415 60.2005 46.9415 58.9199C46.9415 57.6394 45.904 56.6013 44.6242 56.6013H36.4216L28.3309 48.2542H40.9165C42.1963 48.2542 43.2338 47.2161 43.2338 45.9355C43.2338 44.655 42.1963 43.6169 40.9165 43.6169H23.9091C22.7397 42.2044 21.8409 40.666 21.1904 38.9796H36.2819C37.5617 38.9796 38.5992 37.9415 38.5992 36.6609C38.5992 35.3804 37.5617 34.3423 36.2819 34.3423H20.0804C19.8352 31.8518 20.1592 29.403 20.9355 26.8788C21.9348 23.7541 23.6836 21.1293 26.3069 18.8795C28.5554 17.0047 31.0537 15.7548 33.9268 15.2548C36.6749 14.7549 39.548 15.0048 42.2962 15.8798C45.0443 16.8797 47.4177 18.3795 49.5413 20.5044L52.0396 23.0041L54.538 20.5044C56.5366 18.3795 59.0349 16.8797 61.7831 15.8798C64.5313 15.0048 67.2794 14.7549 70.1525 15.2548C72.9007 15.7548 75.5239 17.0047 77.7724 18.8795Z" fill="url(#paint0_linear)"/>
</g>
<path d="M20.144 94.16C19.0667 94.16 18.24 93.8133 17.664 93.12C17.088 92.4267 16.7787 91.504 16.736 90.352L16.72 89.824L16.736 89.312C16.768 88.192 17.072 87.28 17.648 86.576C18.2347 85.872 19.0667 85.52 20.144 85.52C21.1787 85.52 22 85.872 22.608 86.576V83.024C22.608 82.9067 22.6453 82.816 22.72 82.752C22.7947 82.6773 22.8853 82.64 22.992 82.64H24.352C24.4693 82.64 24.56 82.6773 24.624 82.752C24.6987 82.816 24.736 82.9067 24.736 83.024V93.616C24.736 93.7227 24.6987 93.8133 24.624 93.888C24.56 93.9627 24.4693 94 24.352 94H23.088C22.9813 94 22.8907 93.9627 22.816 93.888C22.7413 93.8133 22.704 93.7227 22.704 93.616V93.024C22.096 93.7813 21.2427 94.16 20.144 94.16ZM20.736 92.448C21.3547 92.448 21.8133 92.2507 22.112 91.856C22.4107 91.4613 22.576 90.976 22.608 90.4C22.6187 90.272 22.624 90.064 22.624 89.776C22.624 89.4987 22.6187 89.296 22.608 89.168C22.5867 88.6347 22.416 88.1813 22.096 87.808C21.7867 87.424 21.3333 87.232 20.736 87.232C19.584 87.232 18.9707 87.9413 18.896 89.36L18.88 89.84L18.896 90.32C18.9707 91.7387 19.584 92.448 20.736 92.448ZM30.4525 94.16C29.2685 94.16 28.3245 93.8187 27.6205 93.136C26.9272 92.4427 26.5592 91.472 26.5165 90.224L26.5005 89.824L26.5165 89.424C26.5698 88.208 26.9432 87.2533 27.6365 86.56C28.3405 85.8667 29.2792 85.52 30.4525 85.52C31.7112 85.52 32.6818 85.904 33.3645 86.672C34.0578 87.44 34.4045 88.464 34.4045 89.744V90.08C34.4045 90.1867 34.3672 90.2773 34.2925 90.352C34.2178 90.4267 34.1218 90.464 34.0045 90.464H28.6925V90.592C28.7138 91.1787 28.8738 91.6747 29.1725 92.08C29.4818 92.4747 29.9032 92.672 30.4365 92.672C31.0658 92.672 31.5725 92.4267 31.9565 91.936C32.0525 91.8187 32.1272 91.744 32.1805 91.712C32.2445 91.68 32.3352 91.664 32.4525 91.664H33.8285C33.9245 91.664 34.0045 91.696 34.0685 91.76C34.1432 91.8133 34.1805 91.8827 34.1805 91.968C34.1805 92.224 34.0258 92.528 33.7165 92.88C33.4178 93.2213 32.9858 93.52 32.4205 93.776C31.8552 94.032 31.1992 94.16 30.4525 94.16ZM32.2285 89.12V89.072C32.2285 88.4427 32.0685 87.936 31.7485 87.552C31.4392 87.168 31.0072 86.976 30.4525 86.976C29.8978 86.976 29.4658 87.168 29.1565 87.552C28.8472 87.936 28.6925 88.4427 28.6925 89.072V89.12H32.2285ZM39.6869 94.16C38.5029 94.16 37.5589 93.8187 36.8549 93.136C36.1615 92.4427 35.7935 91.472 35.7509 90.224L35.7349 89.824L35.7509 89.424C35.8042 88.208 36.1775 87.2533 36.8709 86.56C37.5749 85.8667 38.5135 85.52 39.6869 85.52C40.9455 85.52 41.9162 85.904 42.5989 86.672C43.2922 87.44 43.6389 88.464 43.6389 89.744V90.08C43.6389 90.1867 43.6015 90.2773 43.5269 90.352C43.4522 90.4267 43.3562 90.464 43.2389 90.464H37.9269V90.592C37.9482 91.1787 38.1082 91.6747 38.4069 92.08C38.7162 92.4747 39.1375 92.672 39.6709 92.672C40.3002 92.672 40.8069 92.4267 41.1909 91.936C41.2869 91.8187 41.3615 91.744 41.4149 91.712C41.4789 91.68 41.5695 91.664 41.6869 91.664H43.0629C43.1589 91.664 43.2389 91.696 43.3029 91.76C43.3775 91.8133 43.4149 91.8827 43.4149 91.968C43.4149 92.224 43.2602 92.528 42.9509 92.88C42.6522 93.2213 42.2202 93.52 41.6549 93.776C41.0895 94.032 40.4335 94.16 39.6869 94.16ZM41.4629 89.12V89.072C41.4629 88.4427 41.3029 87.936 40.9829 87.552C40.6735 87.168 40.2415 86.976 39.6869 86.976C39.1322 86.976 38.7002 87.168 38.3909 87.552C38.0815 87.936 37.9269 88.4427 37.9269 89.072V89.12H41.4629ZM45.7373 97.04C45.6306 97.04 45.5399 97.0027 45.4653 96.928C45.3906 96.864 45.3533 96.7733 45.3533 96.656V86.064C45.3533 85.9467 45.3906 85.856 45.4653 85.792C45.5399 85.7173 45.6306 85.68 45.7373 85.68H47.0013C47.1186 85.68 47.2093 85.7173 47.2733 85.792C47.3479 85.856 47.3853 85.9467 47.3853 86.064V86.704C47.9826 85.9147 48.8359 85.52 49.9453 85.52C51.0226 85.52 51.8493 85.8613 52.4253 86.544C53.0013 87.216 53.3106 88.128 53.3533 89.28C53.3639 89.408 53.3693 89.5947 53.3693 89.84C53.3693 90.096 53.3639 90.288 53.3533 90.416C53.3106 91.536 53.0013 92.4427 52.4253 93.136C51.8493 93.8187 51.0226 94.16 49.9453 94.16C48.8679 94.16 48.0466 93.7813 47.4813 93.024V96.656C47.4813 96.7733 47.4439 96.864 47.3693 96.928C47.3053 97.0027 47.2146 97.04 47.0973 97.04H45.7373ZM49.3533 92.448C50.5053 92.448 51.1186 91.7387 51.1933 90.32C51.2039 90.2133 51.2093 90.0533 51.2093 89.84C51.2093 89.6267 51.2039 89.4667 51.1933 89.36C51.1186 87.9413 50.5053 87.232 49.3533 87.232C48.7346 87.232 48.2759 87.4293 47.9773 87.824C47.6786 88.2187 47.5133 88.704 47.4813 89.28L47.4653 89.888L47.4813 90.512C47.5026 91.0453 47.6679 91.504 47.9773 91.888C48.2973 92.2613 48.7559 92.448 49.3533 92.448Z" fill="url(#paint1_linear)"/>
<path d="M55.5654 94C55.4587 94 55.368 93.9627 55.2934 93.888C55.2187 93.8133 55.1814 93.7227 55.1814 93.616V83.024C55.1814 82.9067 55.2187 82.816 55.2934 82.752C55.368 82.6773 55.4587 82.64 55.5654 82.64H56.9894C57.1067 82.64 57.1974 82.6773 57.2614 82.752C57.336 82.816 57.3734 82.9067 57.3734 83.024V86.672C58.0134 85.904 58.8774 85.52 59.9654 85.52C60.9467 85.52 61.7307 85.8453 62.3174 86.496C62.904 87.136 63.1974 88.0107 63.1974 89.12V93.616C63.1974 93.7227 63.16 93.8133 63.0854 93.888C63.0214 93.9627 62.9307 94 62.8134 94H61.3734C61.2667 94 61.176 93.9627 61.1014 93.888C61.0267 93.8133 60.9894 93.7227 60.9894 93.616V89.216C60.9894 88.5867 60.8347 88.1013 60.5254 87.76C60.2267 87.408 59.7894 87.232 59.2134 87.232C58.648 87.232 58.2 87.408 57.8694 87.76C57.5387 88.112 57.3734 88.5973 57.3734 89.216V93.616C57.3734 93.7227 57.336 93.8133 57.2614 93.888C57.1974 93.9627 57.1067 94 56.9894 94H55.5654ZM68.8119 94.16C67.6279 94.16 66.6839 93.8187 65.9799 93.136C65.2865 92.4427 64.9185 91.472 64.8759 90.224L64.8599 89.824L64.8759 89.424C64.9292 88.208 65.3025 87.2533 65.9959 86.56C66.6999 85.8667 67.6385 85.52 68.8119 85.52C70.0705 85.52 71.0412 85.904 71.7239 86.672C72.4172 87.44 72.7639 88.464 72.7639 89.744V90.08C72.7639 90.1867 72.7265 90.2773 72.6519 90.352C72.5772 90.4267 72.4812 90.464 72.3639 90.464H67.0519V90.592C67.0732 91.1787 67.2332 91.6747 67.5319 92.08C67.8412 92.4747 68.2625 92.672 68.7959 92.672C69.4252 92.672 69.9319 92.4267 70.3159 91.936C70.4119 91.8187 70.4865 91.744 70.5399 91.712C70.6039 91.68 70.6945 91.664 70.8119 91.664H72.1879C72.2839 91.664 72.3639 91.696 72.4279 91.76C72.5025 91.8133 72.5399 91.8827 72.5399 91.968C72.5399 92.224 72.3852 92.528 72.0759 92.88C71.7772 93.2213 71.3452 93.52 70.7799 93.776C70.2145 94.032 69.5585 94.16 68.8119 94.16ZM70.5879 89.12V89.072C70.5879 88.4427 70.4279 87.936 70.1079 87.552C69.7985 87.168 69.3665 86.976 68.8119 86.976C68.2572 86.976 67.8252 87.168 67.5159 87.552C67.2065 87.936 67.0519 88.4427 67.0519 89.072V89.12H70.5879ZM74.8623 94C74.7556 94 74.6649 93.9627 74.5903 93.888C74.5156 93.8133 74.4783 93.7227 74.4783 93.616V83.024C74.4783 82.9067 74.5156 82.816 74.5903 82.752C74.6649 82.6773 74.7556 82.64 74.8623 82.64H76.1903C76.3076 82.64 76.3983 82.6773 76.4623 82.752C76.5369 82.816 76.5743 82.9067 76.5743 83.024V93.616C76.5743 93.7227 76.5369 93.8133 76.4623 93.888C76.3983 93.9627 76.3076 94 76.1903 94H74.8623ZM79.0966 97.04C78.99 97.04 78.8993 97.0027 78.8246 96.928C78.75 96.864 78.7126 96.7733 78.7126 96.656V86.064C78.7126 85.9467 78.75 85.856 78.8246 85.792C78.8993 85.7173 78.99 85.68 79.0966 85.68H80.3606C80.478 85.68 80.5686 85.7173 80.6326 85.792C80.7073 85.856 80.7446 85.9467 80.7446 86.064V86.704C81.342 85.9147 82.1953 85.52 83.3046 85.52C84.382 85.52 85.2086 85.8613 85.7846 86.544C86.3606 87.216 86.67 88.128 86.7126 89.28C86.7233 89.408 86.7286 89.5947 86.7286 89.84C86.7286 90.096 86.7233 90.288 86.7126 90.416C86.67 91.536 86.3606 92.4427 85.7846 93.136C85.2086 93.8187 84.382 94.16 83.3046 94.16C82.2273 94.16 81.406 93.7813 80.8406 93.024V96.656C80.8406 96.7733 80.8033 96.864 80.7286 96.928C80.6646 97.0027 80.574 97.04 80.4566 97.04H79.0966ZM82.7126 92.448C83.8646 92.448 84.478 91.7387 84.5526 90.32C84.5633 90.2133 84.5686 90.0533 84.5686 89.84C84.5686 89.6267 84.5633 89.4667 84.5526 89.36C84.478 87.9413 83.8646 87.232 82.7126 87.232C82.094 87.232 81.6353 87.4293 81.3366 87.824C81.038 88.2187 80.8726 88.704 80.8406 89.28L80.8246 89.888L80.8406 90.512C80.862 91.0453 81.0273 91.504 81.3366 91.888C81.6566 92.2613 82.1153 92.448 82.7126 92.448Z" fill="#333333"/>
<defs>
<filter id="filter0_d" x="-4" y="-8" width="112" height="112" filterUnits="userSpaceOnUse" color-interpolation-filters="sRGB">
<feFlood flood-opacity="0" result="BackgroundImageFix"/>
<feColorMatrix in="SourceAlpha" type="matrix" values="0 0 0 0 0 0 0 0 0 0 0 0 0 0 0 0 0 0 127 0"/>
<feOffset dy="5"/>
<feGaussianBlur stdDeviation="10"/>
<feColorMatrix type="matrix" values="0 0 0 0 0 0 0 0 0 0 0 0 0 0 0 0 0 0 0.15 0"/>
<feBlend mode="normal" in2="BackgroundImageFix" result="effect1_dropShadow"/>
<feBlend mode="normal" in="SourceGraphic" in2="effect1_dropShadow" result="shape"/>
</filter>
<linearGradient id="paint0_linear" x1="84" y1="15" x2="9.54575" y2="40.6259" gradientUnits="userSpaceOnUse">
<stop stop-color="#941D65"/>
<stop offset="1" stop-color="#731DD8"/>
</linearGradient>
<linearGradient id="paint1_linear" x1="88" y1="79" x2="32.7466" y2="125.08" gradientUnits="userSpaceOnUse">
<stop stop-color="#FF0099"/>
<stop offset="1" stop-color="#731DD8"/>
</linearGradient>
</defs>
</svg>
