<svg width="128" height="38" viewBox="0 0 128 38" fill="none" xmlns="http://www.w3.org/2000/svg">
<g clip-path="url(#clip0)">
<path d="M34.116 15.3813C33.604 13.2294 32.6973 11.2288 31.4212 9.43521C30.0998 7.57783 28.4386 6.0253 26.4837 4.8208C23.8012 3.16787 20.7268 2.29419 17.5929 2.29419C14.7401 2.29419 11.9096 3.01861 9.40757 4.38914C8.13782 5.08469 6.96158 5.94088 5.91151 6.934C4.82916 7.95766 3.88149 9.12663 3.09479 10.4085C1.89265 12.3672 1.10927 14.5037 0.766391 16.7587C0.435269 18.9363 0.527019 21.1316 1.03907 23.2835C1.55111 25.4354 2.45778 27.4359 3.73387 29.2295C5.05531 31.0869 6.71653 32.6394 8.67137 33.844C11.3539 35.4969 14.4283 36.3706 17.5622 36.3706C20.4151 36.3706 23.2455 35.6461 25.7475 34.2756C27.0173 33.5801 28.1935 32.7238 29.2436 31.7307C30.3259 30.7071 31.2736 29.5381 32.0603 28.2563C33.2625 26.2975 34.0458 24.161 34.3887 21.906C34.7198 19.7284 34.6281 17.5332 34.116 15.3813ZM2.70837 22.8847C1.7614 18.9051 2.41778 14.7941 4.55658 11.3092C5.68086 9.47733 7.13819 7.94183 8.82598 6.75918C8.75393 6.86036 8.683 6.96248 8.6144 7.06658C7.88642 8.17152 7.3848 9.39268 7.12349 10.6961C6.86218 11.9996 6.85424 13.3201 7.09992 14.621C7.35436 15.9684 7.8708 17.2349 8.63488 18.3853L10.1737 20.7024L11.6024 19.7498L10.0636 17.4327C8.80529 15.5381 8.35867 13.2659 8.80598 11.0348C9.25328 8.80358 10.5409 6.88049 12.4318 5.61973C14.3226 4.35894 16.5902 3.91148 18.817 4.35964C21.0438 4.80783 22.9631 6.09807 24.2213 7.99267L25.3949 9.75979L21.6281 12.2714L20.4069 10.4326C19.1654 8.56324 16.6375 8.0544 14.7717 9.29843C13.868 9.90104 13.2525 10.8203 13.0387 11.8867C12.8249 12.9532 13.0383 14.0392 13.6398 14.9448L20.0787 24.64C20.4262 25.1633 20.5495 25.7907 20.426 26.4069C20.3024 27.0231 19.9468 27.5542 19.4246 27.9023C18.9025 28.2505 18.2763 28.3741 17.6613 28.2503C17.0464 28.1265 16.5164 27.7702 16.1689 27.247L13.9798 23.9793L7.37283 28.3935L9.49713 31.5922C9.81805 32.0754 10.1751 32.5257 10.5655 32.942C10.2279 32.7672 9.8958 32.5798 9.57029 32.3792C6.09229 30.2362 3.65534 26.8643 2.70837 22.8847ZM30.5985 27.3556C29.4603 29.2101 27.9809 30.7613 26.2664 31.9498C26.3578 31.8239 26.4468 31.6961 26.5327 31.5657C27.2607 30.4607 27.7623 29.2396 28.0237 27.9361C28.285 26.6327 28.2929 25.3121 28.0472 24.0112C27.7928 22.6639 27.2763 21.3974 26.5123 20.2469L24.8783 17.7866L23.4496 18.7392L25.0836 21.1996C26.3419 23.0941 26.7885 25.3663 26.3412 27.5975C25.8939 29.8287 24.6062 31.7518 22.7153 33.0126C21.3031 33.9542 19.6808 34.4422 18.0222 34.4422C17.4601 34.4422 16.8937 34.3861 16.3301 34.2726C14.1033 33.8244 12.1841 32.5342 10.9258 30.6396L9.75222 28.8725C10.744 28.2112 12.5275 27.022 13.519 26.3609L14.7402 28.1997C15.3416 29.1052 16.259 29.7219 17.3233 29.9361C18.3877 30.1504 19.4716 29.9365 20.3754 29.3339C22.2411 28.0899 22.7489 25.5569 21.5074 23.6875L15.0685 13.9922C14.721 13.469 14.5976 12.8415 14.7212 12.2254C14.8447 11.6092 15.2003 11.0781 15.7225 10.7299C16.8004 10.0112 18.261 10.3052 18.9783 11.3852L21.1501 14.6555L27.7743 10.2387L25.65 7.04005C25.3429 6.57772 25.0026 6.14566 24.632 5.74453C24.955 5.91311 25.2729 6.09333 25.5848 6.28553C32.7645 10.7095 35.0137 20.1615 30.5985 27.3556Z" fill="#1D976C"/>
</g>
<path d="M42.912 22.124L41.04 23.242C41.612 24.7327 42.4614 25.946 43.588 26.882C44.732 27.8007 46.0494 28.26 47.54 28.26C48.6667 28.26 49.6374 28.0434 50.452 27.61C51.284 27.1767 51.9254 26.57 52.376 25.79C52.844 24.9927 53.078 24.0827 53.078 23.06C53.078 22.228 52.9307 21.5174 52.636 20.928C52.3414 20.3214 51.96 19.8187 51.492 19.42C51.024 19.004 50.5214 18.6574 49.984 18.38C49.4467 18.1027 48.944 17.8774 48.476 17.704C47.748 17.4267 47.0634 17.132 46.422 16.82C45.7807 16.508 45.2607 16.1527 44.862 15.754C44.4634 15.338 44.264 14.8354 44.264 14.246C44.264 13.4487 44.4894 12.816 44.94 12.348C45.408 11.88 46.0927 11.646 46.994 11.646C47.67 11.646 48.2594 11.7934 48.762 12.088C49.282 12.3654 49.724 12.738 50.088 13.206C50.4694 13.6567 50.79 14.1334 51.05 14.636L52.844 13.44C52.532 12.7294 52.1247 12.0794 51.622 11.49C51.1194 10.9007 50.504 10.4327 49.776 10.086C49.0654 9.72204 48.216 9.54004 47.228 9.54004C46.1534 9.54004 45.2174 9.73937 44.42 10.138C43.64 10.5367 43.0334 11.0914 42.6 11.802C42.1667 12.4954 41.95 13.3014 41.95 14.22C41.95 15.052 42.0974 15.754 42.392 16.326C42.704 16.898 43.094 17.366 43.562 17.73C44.03 18.094 44.524 18.3974 45.044 18.64C45.5814 18.8654 46.0754 19.056 46.526 19.212C47.2194 19.4547 47.8867 19.7407 48.528 20.07C49.1867 20.3994 49.724 20.8154 50.14 21.318C50.5734 21.8207 50.79 22.462 50.79 23.242C50.79 24.1434 50.53 24.8627 50.01 25.4C49.49 25.92 48.71 26.18 47.67 26.18C46.5434 26.18 45.6074 25.816 44.862 25.088C44.1167 24.36 43.4667 23.372 42.912 22.124Z" fill="#1D976C"/>
<path d="M65.6842 16.04H63.3442L60.0682 24.282L56.7142 16.04H54.2442L58.8202 26.31L55.5442 33.72H57.8842L65.6842 16.04Z" fill="#1D976C"/>
<path d="M75.3154 20.72V28H77.3954V20.46C77.3954 18.9174 77.014 17.756 76.2514 16.976C75.506 16.1787 74.518 15.78 73.2874 15.78C72.5074 15.78 71.8054 15.9794 71.1814 16.378C70.5747 16.7594 70.0894 17.2794 69.7254 17.938V16.04H67.6454V28H69.7254V20.72C69.7254 19.8534 70.0027 19.1427 70.5574 18.588C71.1294 18.016 71.866 17.73 72.7674 17.73C74.466 17.73 75.3154 18.7267 75.3154 20.72Z" fill="#1D976C"/>
<path d="M81.606 22.02C81.606 21.188 81.7793 20.4514 82.126 19.81C82.49 19.1514 82.9753 18.64 83.582 18.276C84.206 17.912 84.908 17.73 85.688 17.73C86.6587 17.73 87.5253 17.9467 88.288 18.38C89.0507 18.8134 89.5707 19.3247 89.848 19.914V17.314C89.432 16.8287 88.834 16.456 88.054 16.196C87.2913 15.9187 86.5027 15.78 85.688 15.78C84.5267 15.78 83.478 16.0487 82.542 16.586C81.606 17.1234 80.8607 17.86 80.306 18.796C79.7687 19.732 79.5 20.8067 79.5 22.02C79.5 23.216 79.7687 24.2907 80.306 25.244C80.8607 26.18 81.606 26.9167 82.542 27.454C83.478 27.9914 84.5267 28.26 85.688 28.26C86.5027 28.26 87.2913 28.13 88.054 27.87C88.834 27.5927 89.432 27.2114 89.848 26.726V24.126C89.5707 24.7154 89.0507 25.2267 88.288 25.66C87.5253 26.0934 86.6587 26.31 85.688 26.31C84.908 26.31 84.206 26.128 83.582 25.764C82.9753 25.3827 82.49 24.8714 82.126 24.23C81.7793 23.5887 81.606 22.852 81.606 22.02Z" fill="#1D976C"/>
<path d="M93.8114 22.02C93.8114 21.188 93.9847 20.4514 94.3314 19.81C94.6954 19.1514 95.1807 18.64 95.7874 18.276C96.4114 17.912 97.1134 17.73 97.8934 17.73C98.6734 17.73 99.3667 17.912 99.9734 18.276C100.597 18.64 101.083 19.1514 101.429 19.81C101.793 20.4514 101.975 21.188 101.975 22.02C101.975 22.852 101.793 23.5887 101.429 24.23C101.083 24.8714 100.597 25.3827 99.9734 25.764C99.3667 26.128 98.6734 26.31 97.8934 26.31C97.1134 26.31 96.4114 26.128 95.7874 25.764C95.1807 25.3827 94.6954 24.8714 94.3314 24.23C93.9847 23.5887 93.8114 22.852 93.8114 22.02ZM91.7054 22.02C91.7054 23.216 91.9741 24.2907 92.5114 25.244C93.0661 26.18 93.8114 26.9167 94.7474 27.454C95.6834 27.9914 96.7321 28.26 97.8934 28.26C99.0721 28.26 100.121 27.9914 101.039 27.454C101.975 26.9167 102.712 26.18 103.249 25.244C103.804 24.2907 104.081 23.216 104.081 22.02C104.081 20.8067 103.804 19.732 103.249 18.796C102.712 17.86 101.975 17.1234 101.039 16.586C100.121 16.0487 99.0721 15.78 97.8934 15.78C96.7321 15.78 95.6834 16.0487 94.7474 16.586C93.8114 17.1234 93.0661 17.86 92.5114 18.796C91.9741 19.732 91.7054 20.8067 91.7054 22.02Z" fill="#1D976C"/>
<path d="M112.194 18.328L113.338 16.612C113.026 16.2827 112.679 16.066 112.298 15.962C111.934 15.8407 111.535 15.78 111.102 15.78C110.651 15.78 110.201 15.9274 109.75 16.222C109.317 16.5167 108.927 16.9154 108.58 17.418V16.04H106.5V28H108.58V20.72C108.58 19.8534 108.719 19.1427 108.996 18.588C109.273 18.016 109.802 17.73 110.582 17.73C110.929 17.73 111.215 17.782 111.44 17.886C111.665 17.9727 111.917 18.12 112.194 18.328Z" fill="#1D976C"/>
<path d="M116.123 22.54H125.535C125.553 22.436 125.561 22.332 125.561 22.228C125.561 22.124 125.561 22.02 125.561 21.916C125.561 20.6507 125.327 19.5674 124.859 18.666C124.391 17.7474 123.733 17.0367 122.883 16.534C122.034 16.0314 121.046 15.78 119.919 15.78C118.897 15.78 117.969 15.988 117.137 16.404C116.323 16.82 115.655 17.4007 115.135 18.146C114.615 18.8914 114.269 19.758 114.095 20.746C114.061 20.954 114.035 21.162 114.017 21.37C114 21.578 113.991 21.7947 113.991 22.02C113.991 23.216 114.234 24.2907 114.719 25.244C115.222 26.18 115.898 26.9167 116.747 27.454C117.614 27.9914 118.585 28.26 119.659 28.26C120.699 28.26 121.566 28.1387 122.259 27.896C122.953 27.636 123.542 27.2807 124.027 26.83C124.513 26.362 124.955 25.8247 125.353 25.218L123.663 24.152C123.265 24.7934 122.753 25.3134 122.129 25.712C121.523 26.1107 120.786 26.31 119.919 26.31C118.827 26.31 117.943 25.9894 117.267 25.348C116.591 24.6894 116.21 23.7534 116.123 22.54ZM116.175 20.772C116.279 19.8014 116.687 19.03 117.397 18.458C118.125 17.886 118.966 17.6 119.919 17.6C120.959 17.6 121.757 17.8947 122.311 18.484C122.866 19.0734 123.195 19.836 123.299 20.772H116.175Z" fill="#1D976C"/>
<defs>
<clipPath id="clip0">
<path d="M0 2H35V36.5172H0V2Z" fill="white"/>
</clipPath>
</defs>
</svg>
