<svg width="1280" height="720" viewBox="0 0 1280 720" fill="none" xmlns="http://www.w3.org/2000/svg">
<g clip-path="url(#clip0)">
<rect width="1280" height="720" fill="white"/>
<path d="M454.336 720H0V0H725L454.336 720Z" fill="#222222"/>
<g clip-path="url(#clip1)">
<path d="M227.493 30C221.138 30.0005 214.979 32.2022 210.064 36.2307C205.148 40.2592 201.78 45.8659 200.531 52.0974C199.283 58.3289 200.231 64.8005 203.215 70.4119C206.198 76.0233 211.034 80.428 216.898 82.8772L218.963 79.553C213.484 77.4079 209.005 73.2945 206.401 68.0186C203.797 62.7428 203.258 56.6848 204.887 51.0317C206.517 45.3787 210.199 40.5379 215.212 37.458C220.225 34.3781 226.207 33.281 231.986 34.3817C237.765 35.4824 242.925 38.7016 246.455 43.4084C249.985 48.1153 251.63 53.9705 251.068 59.827C250.506 65.6834 247.777 71.1189 243.416 75.0683C239.056 79.0178 233.378 81.1967 227.494 81.178C227.455 81.178 227.418 81.171 227.378 81.171L247.47 48.5566H233.601L229.672 54.8949L228.349 57.0294L228.225 57.2243L225.635 61.4027H225.626L223.625 64.6247L216.133 52.5307L220.628 52.5365L221.972 54.6918L226.821 54.7011L222.851 48.5554H208.974L221.284 68.4026L221.277 68.4119L223.62 72.1968L225.973 68.4026L228.223 64.7802V64.7895L235.821 52.5423H240.314L221.681 82.5475L221.775 82.5858L220.807 84.1458C224.585 85.0957 228.521 85.2319 232.356 84.5451C236.19 83.8583 239.835 82.3643 243.048 80.1622C246.262 77.9601 248.97 75.1001 250.995 71.7718C253.019 68.4435 254.313 64.7229 254.79 60.8567C255.267 56.9905 254.918 53.067 253.764 49.3462C252.61 45.6255 250.679 42.1925 248.098 39.2747C245.516 36.357 242.345 34.0213 238.793 32.4223C235.24 30.8233 231.389 29.9976 227.493 30V30Z" fill="#1D976C"/>
</g>
<path opacity="0.15" d="M230.643 273.783C232.988 273.783 234.895 273.486 236.365 272.891C237.87 272.296 239.043 271.526 239.883 270.581C240.723 269.636 241.3 268.568 241.615 267.378C241.93 266.188 242.088 264.981 242.088 263.756C242.088 262.356 241.895 261.096 241.51 259.976C241.16 258.856 240.53 257.911 239.62 257.141C238.745 256.371 237.573 255.776 236.103 255.356C234.633 254.936 232.778 254.726 230.538 254.726H218.148V273.783H230.643ZM218.148 223.961V242.861H227.388C229.348 242.861 231.115 242.721 232.69 242.441C234.265 242.161 235.595 241.671 236.68 240.971C237.8 240.271 238.64 239.308 239.2 238.083C239.795 236.858 240.093 235.318 240.093 233.463C240.093 231.643 239.865 230.138 239.41 228.948C238.955 227.723 238.255 226.743 237.31 226.008C236.365 225.273 235.158 224.748 233.688 224.433C232.253 224.118 230.538 223.961 228.543 223.961H218.148ZM228.543 210.678C233.828 210.678 238.325 211.168 242.035 212.148C245.745 213.128 248.773 214.511 251.117 216.296C253.463 218.081 255.16 220.251 256.21 222.806C257.295 225.361 257.838 228.213 257.838 231.363C257.838 233.078 257.593 234.741 257.103 236.351C256.613 237.926 255.843 239.413 254.793 240.813C253.743 242.178 252.395 243.438 250.75 244.593C249.105 245.748 247.128 246.746 244.818 247.586C249.858 248.811 253.585 250.788 256 253.518C258.415 256.248 259.623 259.783 259.623 264.123C259.623 267.378 258.993 270.406 257.733 273.206C256.473 276.006 254.618 278.456 252.168 280.556C249.753 282.621 246.76 284.248 243.19 285.438C239.62 286.593 235.543 287.171 230.958 287.171H200.403V210.678H228.543ZM283.156 241.128C284.836 238.188 286.761 235.878 288.931 234.198C291.136 232.518 293.656 231.678 296.491 231.678C298.941 231.678 300.936 232.256 302.476 233.411L301.426 245.381C301.251 246.151 300.954 246.676 300.534 246.956C300.149 247.236 299.606 247.376 298.906 247.376C298.626 247.376 298.259 247.358 297.804 247.323C297.349 247.288 296.876 247.253 296.386 247.218C295.896 247.148 295.389 247.096 294.864 247.061C294.374 246.991 293.919 246.956 293.499 246.956C291.119 246.956 289.211 247.586 287.776 248.846C286.376 250.106 285.186 251.856 284.206 254.096V287.171H267.931V232.728H277.591C278.396 232.728 279.061 232.798 279.586 232.938C280.146 233.078 280.601 233.306 280.951 233.621C281.336 233.901 281.616 234.286 281.791 234.776C282.001 235.266 282.176 235.861 282.316 236.561L283.156 241.128ZM335.599 265.016C332.344 265.156 329.667 265.436 327.567 265.856C325.467 266.276 323.804 266.801 322.579 267.431C321.354 268.061 320.497 268.778 320.007 269.583C319.552 270.388 319.324 271.263 319.324 272.208C319.324 274.063 319.832 275.376 320.847 276.146C321.862 276.881 323.349 277.248 325.309 277.248C327.409 277.248 329.247 276.881 330.822 276.146C332.397 275.411 333.989 274.221 335.599 272.576V265.016ZM306.304 240.288C309.594 237.383 313.234 235.231 317.224 233.831C321.249 232.396 325.554 231.678 330.139 231.678C333.429 231.678 336.387 232.221 339.012 233.306C341.672 234.356 343.912 235.843 345.732 237.768C347.587 239.658 349.004 241.916 349.984 244.541C350.964 247.166 351.454 250.036 351.454 253.151V287.171H343.999C342.459 287.171 341.287 286.961 340.482 286.541C339.712 286.121 339.064 285.246 338.539 283.916L337.384 280.923C336.019 282.078 334.707 283.093 333.447 283.968C332.187 284.843 330.874 285.596 329.509 286.226C328.179 286.821 326.744 287.258 325.204 287.538C323.699 287.853 322.019 288.011 320.164 288.011C317.679 288.011 315.422 287.696 313.392 287.066C311.362 286.401 309.629 285.438 308.194 284.178C306.794 282.918 305.709 281.361 304.939 279.506C304.169 277.616 303.784 275.446 303.784 272.996C303.784 271.036 304.274 269.058 305.254 267.063C306.234 265.033 307.932 263.196 310.347 261.551C312.762 259.871 316.017 258.471 320.112 257.351C324.207 256.231 329.369 255.601 335.599 255.461V253.151C335.599 249.966 334.934 247.673 333.604 246.273C332.309 244.838 330.454 244.121 328.039 244.121C326.114 244.121 324.539 244.331 323.314 244.751C322.089 245.171 320.987 245.643 320.007 246.168C319.062 246.693 318.134 247.166 317.224 247.586C316.314 248.006 315.229 248.216 313.969 248.216C312.849 248.216 311.904 247.936 311.134 247.376C310.364 246.816 309.734 246.151 309.244 245.381L306.304 240.288ZM376.872 238.608C377.922 237.628 379.007 236.718 380.127 235.878C381.247 235.038 382.437 234.338 383.697 233.778C384.992 233.183 386.375 232.728 387.845 232.413C389.35 232.063 390.977 231.888 392.727 231.888C395.702 231.888 398.327 232.413 400.602 233.463C402.912 234.478 404.855 235.913 406.43 237.768C408.005 239.588 409.195 241.776 410 244.331C410.805 246.851 411.207 249.598 411.207 252.573V287.171H394.932V252.573C394.932 249.913 394.32 247.848 393.095 246.378C391.87 244.873 390.067 244.121 387.687 244.121C385.902 244.121 384.222 244.506 382.647 245.276C381.107 246.011 379.602 247.026 378.132 248.321V287.171H361.857V232.728H371.937C373.967 232.728 375.297 233.638 375.927 235.458L376.872 238.608ZM454.763 247.323C453.538 245.958 452.208 245.013 450.773 244.488C449.338 243.928 447.833 243.648 446.258 243.648C444.753 243.648 443.37 243.946 442.11 244.541C440.85 245.136 439.748 246.098 438.803 247.428C437.893 248.723 437.175 250.421 436.65 252.521C436.125 254.621 435.863 257.158 435.863 260.133C435.863 263.003 436.073 265.418 436.493 267.378C436.913 269.338 437.49 270.931 438.225 272.156C438.995 273.346 439.905 274.203 440.955 274.728C442.005 275.253 443.178 275.516 444.473 275.516C445.663 275.516 446.73 275.411 447.675 275.201C448.655 274.956 449.548 274.623 450.353 274.203C451.158 273.783 451.91 273.258 452.61 272.628C453.345 271.963 454.063 271.211 454.763 270.371V247.323ZM471.038 208.578V287.171H460.958C458.928 287.171 457.598 286.261 456.968 284.441L455.708 280.293C454.623 281.448 453.485 282.498 452.295 283.443C451.105 284.388 449.81 285.211 448.41 285.911C447.045 286.576 445.558 287.083 443.948 287.433C442.373 287.818 440.658 288.011 438.803 288.011C435.968 288.011 433.343 287.381 430.928 286.121C428.513 284.861 426.43 283.041 424.68 280.661C422.93 278.281 421.548 275.376 420.533 271.946C419.553 268.481 419.063 264.543 419.063 260.133C419.063 256.073 419.623 252.311 420.743 248.846C421.863 245.346 423.438 242.336 425.468 239.816C427.533 237.261 430 235.266 432.87 233.831C435.74 232.396 438.908 231.678 442.373 231.678C445.208 231.678 447.588 232.081 449.513 232.886C451.438 233.691 453.188 234.776 454.763 236.141V208.578H471.038ZM516.631 244.646C516.211 245.311 515.756 245.783 515.266 246.063C514.811 246.343 514.216 246.483 513.481 246.483C512.711 246.483 511.941 246.326 511.171 246.011C510.401 245.661 509.561 245.293 508.651 244.908C507.776 244.523 506.778 244.173 505.658 243.858C504.538 243.508 503.261 243.333 501.826 243.333C499.761 243.333 498.168 243.736 497.048 244.541C495.963 245.311 495.421 246.396 495.421 247.796C495.421 248.811 495.771 249.651 496.471 250.316C497.206 250.981 498.168 251.576 499.358 252.101C500.548 252.591 501.896 253.063 503.401 253.518C504.906 253.973 506.446 254.481 508.021 255.041C509.596 255.601 511.136 256.266 512.641 257.036C514.146 257.771 515.493 258.698 516.683 259.818C517.873 260.903 518.818 262.233 519.518 263.808C520.253 265.383 520.621 267.273 520.621 269.478C520.621 272.173 520.131 274.658 519.151 276.933C518.171 279.208 516.701 281.168 514.741 282.813C512.816 284.458 510.418 285.736 507.548 286.646C504.713 287.556 501.441 288.011 497.731 288.011C495.876 288.011 494.021 287.836 492.166 287.486C490.311 287.136 488.508 286.663 486.758 286.068C485.043 285.473 483.451 284.773 481.981 283.968C480.511 283.128 479.251 282.236 478.201 281.291L481.981 275.306C482.401 274.606 482.926 274.063 483.556 273.678C484.221 273.258 485.061 273.048 486.076 273.048C487.021 273.048 487.861 273.258 488.596 273.678C489.366 274.098 490.188 274.553 491.063 275.043C491.938 275.533 492.953 275.988 494.108 276.408C495.298 276.828 496.786 277.038 498.571 277.038C499.831 277.038 500.898 276.916 501.773 276.671C502.648 276.391 503.348 276.023 503.873 275.568C504.398 275.113 504.783 274.606 505.028 274.046C505.273 273.486 505.396 272.908 505.396 272.313C505.396 271.228 505.028 270.336 504.293 269.636C503.558 268.936 502.596 268.341 501.406 267.851C500.216 267.326 498.851 266.853 497.311 266.433C495.806 265.978 494.266 265.471 492.691 264.911C491.116 264.351 489.558 263.686 488.018 262.916C486.513 262.111 485.166 261.113 483.976 259.923C482.786 258.698 481.823 257.211 481.088 255.461C480.353 253.711 479.986 251.593 479.986 249.108C479.986 246.798 480.423 244.611 481.298 242.546C482.208 240.446 483.556 238.608 485.341 237.033C487.126 235.458 489.366 234.216 492.061 233.306C494.756 232.361 497.906 231.888 501.511 231.888C503.471 231.888 505.361 232.063 507.181 232.413C509.036 232.763 510.768 233.253 512.378 233.883C513.988 234.513 515.458 235.266 516.788 236.141C518.118 236.981 519.291 237.908 520.306 238.923L516.631 244.646ZM231.535 373.323C230.31 371.958 228.98 371.013 227.545 370.488C226.11 369.928 224.605 369.648 223.03 369.648C221.525 369.648 220.143 369.946 218.883 370.541C217.623 371.136 216.52 372.098 215.575 373.428C214.665 374.723 213.948 376.421 213.423 378.521C212.898 380.621 212.635 383.158 212.635 386.133C212.635 389.003 212.845 391.418 213.265 393.378C213.685 395.338 214.263 396.931 214.998 398.156C215.768 399.346 216.678 400.203 217.728 400.728C218.778 401.253 219.95 401.516 221.245 401.516C222.435 401.516 223.503 401.411 224.448 401.201C225.428 400.956 226.32 400.623 227.125 400.203C227.93 399.783 228.683 399.258 229.383 398.628C230.118 397.963 230.835 397.211 231.535 396.371V373.323ZM247.81 334.578V413.171H237.73C235.7 413.171 234.37 412.261 233.74 410.441L232.48 406.293C231.395 407.448 230.258 408.498 229.068 409.443C227.878 410.388 226.583 411.211 225.183 411.911C223.818 412.576 222.33 413.083 220.72 413.433C219.145 413.818 217.43 414.011 215.575 414.011C212.74 414.011 210.115 413.381 207.7 412.121C205.285 410.861 203.203 409.041 201.453 406.661C199.703 404.281 198.32 401.376 197.305 397.946C196.325 394.481 195.835 390.543 195.835 386.133C195.835 382.073 196.395 378.311 197.515 374.846C198.635 371.346 200.21 368.336 202.24 365.816C204.305 363.261 206.773 361.266 209.643 359.831C212.513 358.396 215.68 357.678 219.145 357.678C221.98 357.678 224.36 358.081 226.285 358.886C228.21 359.691 229.96 360.776 231.535 362.141V334.578H247.81ZM283.9 357.888C288.03 357.888 291.793 358.536 295.188 359.831C298.583 361.126 301.488 362.981 303.903 365.396C306.353 367.811 308.243 370.751 309.573 374.216C310.938 377.646 311.62 381.513 311.62 385.818C311.62 390.158 310.938 394.078 309.573 397.578C308.243 401.043 306.353 404.001 303.903 406.451C301.488 408.866 298.583 410.738 295.188 412.068C291.793 413.363 288.03 414.011 283.9 414.011C279.735 414.011 275.938 413.363 272.508 412.068C269.113 410.738 266.173 408.866 263.688 406.451C261.238 404.001 259.33 401.043 257.965 397.578C256.635 394.078 255.97 390.158 255.97 385.818C255.97 381.513 256.635 377.646 257.965 374.216C259.33 370.751 261.238 367.811 263.688 365.396C266.173 362.981 269.113 361.126 272.508 359.831C275.938 358.536 279.735 357.888 283.9 357.888ZM283.9 401.936C287.645 401.936 290.393 400.623 292.143 397.998C293.928 395.338 294.82 391.313 294.82 385.923C294.82 380.533 293.928 376.526 292.143 373.901C290.393 371.276 287.645 369.963 283.9 369.963C280.05 369.963 277.233 371.276 275.448 373.901C273.663 376.526 272.77 380.533 272.77 385.923C272.77 391.313 273.663 395.338 275.448 397.998C277.233 400.623 280.05 401.936 283.9 401.936ZM334.831 364.608C335.881 363.628 336.966 362.718 338.086 361.878C339.206 361.038 340.396 360.338 341.656 359.778C342.951 359.183 344.334 358.728 345.804 358.413C347.309 358.063 348.936 357.888 350.686 357.888C353.661 357.888 356.286 358.413 358.561 359.463C360.871 360.478 362.814 361.913 364.389 363.768C365.964 365.588 367.154 367.776 367.959 370.331C368.764 372.851 369.166 375.598 369.166 378.573V413.171H352.891V378.573C352.891 375.913 352.279 373.848 351.054 372.378C349.829 370.873 348.026 370.121 345.646 370.121C343.861 370.121 342.181 370.506 340.606 371.276C339.066 372.011 337.561 373.026 336.091 374.321V413.171H319.816V358.728H329.896C331.926 358.728 333.256 359.638 333.886 361.458L334.831 364.608ZM389.236 331.638C391.126 334.648 392.403 337.746 393.068 340.931C393.733 344.116 393.768 347.266 393.173 350.381C392.613 353.461 391.441 356.418 389.656 359.253C387.871 362.088 385.491 364.661 382.516 366.971L377.371 363.926C376.916 363.681 376.601 363.383 376.426 363.033C376.251 362.648 376.163 362.281 376.163 361.931C376.198 361.546 376.286 361.196 376.426 360.881C376.601 360.531 376.811 360.233 377.056 359.988C377.441 359.568 377.861 358.991 378.316 358.256C378.771 357.521 379.191 356.663 379.576 355.683C379.961 354.703 380.258 353.636 380.468 352.481C380.713 351.291 380.801 350.048 380.731 348.753C380.661 347.423 380.416 346.058 379.996 344.658C379.576 343.223 378.893 341.771 377.948 340.301C377.178 339.076 376.968 338.026 377.318 337.151C377.703 336.276 378.421 335.646 379.471 335.261L389.236 331.638ZM421.53 414.011C418.94 414.011 416.648 413.643 414.653 412.908C412.693 412.138 411.03 411.071 409.665 409.706C408.335 408.306 407.32 406.626 406.62 404.666C405.92 402.706 405.57 400.518 405.57 398.103V369.963H400.95C400.11 369.963 399.393 369.701 398.798 369.176C398.203 368.616 397.905 367.811 397.905 366.761V360.408L406.568 358.728L409.77 345.446C410.19 343.766 411.38 342.926 413.34 342.926H421.845V358.833H435.338V369.963H421.845V397.001C421.845 398.261 422.143 399.311 422.738 400.151C423.368 400.956 424.26 401.358 425.415 401.358C426.01 401.358 426.5 401.306 426.885 401.201C427.305 401.061 427.655 400.921 427.935 400.781C428.25 400.606 428.53 400.466 428.775 400.361C429.055 400.221 429.37 400.151 429.72 400.151C430.21 400.151 430.595 400.273 430.875 400.518C431.19 400.728 431.505 401.078 431.82 401.568L436.755 409.286C434.655 410.861 432.293 412.051 429.668 412.856C427.043 413.626 424.33 414.011 421.53 414.011ZM231.535 499.323C230.31 497.958 228.98 497.013 227.545 496.488C226.11 495.928 224.605 495.648 223.03 495.648C221.525 495.648 220.143 495.946 218.883 496.541C217.623 497.136 216.52 498.098 215.575 499.428C214.665 500.723 213.948 502.421 213.423 504.521C212.898 506.621 212.635 509.158 212.635 512.133C212.635 515.003 212.845 517.418 213.265 519.378C213.685 521.338 214.263 522.931 214.998 524.156C215.768 525.346 216.678 526.203 217.728 526.728C218.778 527.253 219.95 527.516 221.245 527.516C222.435 527.516 223.503 527.411 224.448 527.201C225.428 526.956 226.32 526.623 227.125 526.203C227.93 525.783 228.683 525.258 229.383 524.628C230.118 523.963 230.835 523.211 231.535 522.371V499.323ZM247.81 460.578V539.171H237.73C235.7 539.171 234.37 538.261 233.74 536.441L232.48 532.293C231.395 533.448 230.258 534.498 229.068 535.443C227.878 536.388 226.583 537.211 225.183 537.911C223.818 538.576 222.33 539.083 220.72 539.433C219.145 539.818 217.43 540.011 215.575 540.011C212.74 540.011 210.115 539.381 207.7 538.121C205.285 536.861 203.203 535.041 201.453 532.661C199.703 530.281 198.32 527.376 197.305 523.946C196.325 520.481 195.835 516.543 195.835 512.133C195.835 508.073 196.395 504.311 197.515 500.846C198.635 497.346 200.21 494.336 202.24 491.816C204.305 489.261 206.773 487.266 209.643 485.831C212.513 484.396 215.68 483.678 219.145 483.678C221.98 483.678 224.36 484.081 226.285 484.886C228.21 485.691 229.96 486.776 231.535 488.141V460.578H247.81ZM275.448 484.728V539.171H259.173V484.728H275.448ZM277.128 469.818C277.128 471.113 276.865 472.338 276.34 473.493C275.815 474.613 275.098 475.611 274.188 476.486C273.278 477.326 272.21 478.008 270.985 478.533C269.795 479.023 268.518 479.268 267.153 479.268C265.823 479.268 264.58 479.023 263.425 478.533C262.27 478.008 261.238 477.326 260.328 476.486C259.453 475.611 258.753 474.613 258.228 473.493C257.738 472.338 257.493 471.113 257.493 469.818C257.493 468.488 257.738 467.246 258.228 466.091C258.753 464.936 259.453 463.921 260.328 463.046C261.238 462.171 262.27 461.488 263.425 460.998C264.58 460.508 265.823 460.263 267.153 460.263C268.518 460.263 269.795 460.508 270.985 460.998C272.21 461.488 273.278 462.171 274.188 463.046C275.098 463.921 275.815 464.936 276.34 466.091C276.865 467.246 277.128 468.488 277.128 469.818ZM320.661 505.413C320.661 504.118 320.486 502.858 320.136 501.633C319.821 500.408 319.279 499.323 318.509 498.378C317.774 497.398 316.794 496.611 315.569 496.016C314.344 495.421 312.856 495.123 311.106 495.123C308.026 495.123 305.611 496.016 303.861 497.801C302.111 499.551 300.956 502.088 300.396 505.413H320.661ZM300.186 514.863C300.711 519.413 302.094 522.721 304.334 524.786C306.574 526.816 309.461 527.831 312.996 527.831C314.886 527.831 316.514 527.603 317.879 527.148C319.244 526.693 320.451 526.186 321.501 525.626C322.586 525.066 323.566 524.558 324.441 524.103C325.351 523.648 326.296 523.421 327.276 523.421C328.571 523.421 329.551 523.893 330.216 524.838L334.941 530.666C333.261 532.591 331.441 534.166 329.481 535.391C327.556 536.581 325.561 537.526 323.496 538.226C321.466 538.891 319.419 539.346 317.354 539.591C315.324 539.871 313.381 540.011 311.526 540.011C307.711 540.011 304.124 539.398 300.764 538.173C297.439 536.913 294.516 535.058 291.996 532.608C289.511 530.158 287.534 527.113 286.064 523.473C284.629 519.833 283.911 515.598 283.911 510.768C283.911 507.128 284.524 503.681 285.749 500.426C287.009 497.171 288.794 494.318 291.104 491.868C293.449 489.418 296.266 487.476 299.556 486.041C302.881 484.606 306.626 483.888 310.791 483.888C314.396 483.888 317.686 484.448 320.661 485.568C323.671 486.688 326.244 488.316 328.379 490.451C330.549 492.586 332.229 495.211 333.419 498.326C334.644 501.406 335.256 504.906 335.256 508.826C335.256 510.051 335.204 511.048 335.099 511.818C334.994 512.588 334.801 513.201 334.521 513.656C334.241 514.111 333.856 514.426 333.366 514.601C332.911 514.776 332.316 514.863 331.581 514.863H300.186ZM341.195 530.928C341.195 529.668 341.423 528.496 341.878 527.411C342.368 526.326 343.015 525.381 343.82 524.576C344.66 523.771 345.64 523.141 346.76 522.686C347.88 522.196 349.105 521.951 350.435 521.951C351.73 521.951 352.938 522.196 354.058 522.686C355.178 523.141 356.158 523.771 356.998 524.576C357.838 525.381 358.485 526.326 358.94 527.411C359.43 528.496 359.675 529.668 359.675 530.928C359.675 532.188 359.43 533.378 358.94 534.498C358.485 535.583 357.838 536.528 356.998 537.333C356.158 538.138 355.178 538.768 354.058 539.223C352.938 539.678 351.73 539.906 350.435 539.906C349.105 539.906 347.88 539.678 346.76 539.223C345.64 538.768 344.66 538.138 343.82 537.333C343.015 536.528 342.368 535.583 341.878 534.498C341.423 533.378 341.195 532.188 341.195 530.928ZM366.317 530.928C366.317 529.668 366.545 528.496 367 527.411C367.49 526.326 368.137 525.381 368.942 524.576C369.782 523.771 370.762 523.141 371.882 522.686C373.002 522.196 374.227 521.951 375.557 521.951C376.852 521.951 378.06 522.196 379.18 522.686C380.3 523.141 381.28 523.771 382.12 524.576C382.96 525.381 383.607 526.326 384.062 527.411C384.552 528.496 384.797 529.668 384.797 530.928C384.797 532.188 384.552 533.378 384.062 534.498C383.607 535.583 382.96 536.528 382.12 537.333C381.28 538.138 380.3 538.768 379.18 539.223C378.06 539.678 376.852 539.906 375.557 539.906C374.227 539.906 373.002 539.678 371.882 539.223C370.762 538.768 369.782 538.138 368.942 537.333C368.137 536.528 367.49 535.583 367 534.498C366.545 533.378 366.317 532.188 366.317 530.928ZM391.439 530.928C391.439 529.668 391.667 528.496 392.122 527.411C392.612 526.326 393.259 525.381 394.064 524.576C394.904 523.771 395.884 523.141 397.004 522.686C398.124 522.196 399.349 521.951 400.679 521.951C401.974 521.951 403.182 522.196 404.302 522.686C405.422 523.141 406.402 523.771 407.242 524.576C408.082 525.381 408.729 526.326 409.184 527.411C409.674 528.496 409.919 529.668 409.919 530.928C409.919 532.188 409.674 533.378 409.184 534.498C408.729 535.583 408.082 536.528 407.242 537.333C406.402 538.138 405.422 538.768 404.302 539.223C403.182 539.678 401.974 539.906 400.679 539.906C399.349 539.906 398.124 539.678 397.004 539.223C395.884 538.768 394.904 538.138 394.064 537.333C393.259 536.528 392.612 535.583 392.122 534.498C391.667 533.378 391.439 532.188 391.439 530.928Z" fill="#2F323A"/>
<path d="M237.643 265.612C239.988 265.612 241.895 265.315 243.365 264.72C244.87 264.125 246.043 263.355 246.883 262.41C247.723 261.465 248.3 260.397 248.615 259.207C248.93 258.017 249.088 256.81 249.088 255.585C249.088 254.185 248.895 252.925 248.51 251.805C248.16 250.685 247.53 249.74 246.62 248.97C245.745 248.2 244.573 247.605 243.103 247.185C241.633 246.765 239.778 246.555 237.538 246.555H225.148V265.612H237.643ZM225.148 215.79V234.69H234.388C236.348 234.69 238.115 234.55 239.69 234.27C241.265 233.99 242.595 233.5 243.68 232.8C244.8 232.1 245.64 231.137 246.2 229.912C246.795 228.687 247.093 227.147 247.093 225.292C247.093 223.472 246.865 221.967 246.41 220.777C245.955 219.552 245.255 218.572 244.31 217.837C243.365 217.102 242.158 216.577 240.688 216.262C239.253 215.947 237.538 215.79 235.543 215.79H225.148ZM235.543 202.507C240.828 202.507 245.325 202.997 249.035 203.977C252.745 204.957 255.773 206.34 258.117 208.125C260.463 209.91 262.16 212.08 263.21 214.635C264.295 217.19 264.838 220.042 264.838 223.192C264.838 224.907 264.593 226.57 264.103 228.18C263.613 229.755 262.843 231.242 261.793 232.642C260.743 234.007 259.395 235.267 257.75 236.422C256.105 237.577 254.128 238.575 251.818 239.415C256.858 240.64 260.585 242.617 263 245.347C265.415 248.077 266.623 251.612 266.623 255.952C266.623 259.207 265.993 262.235 264.733 265.035C263.473 267.835 261.618 270.285 259.168 272.385C256.753 274.45 253.76 276.077 250.19 277.268C246.62 278.423 242.543 279 237.958 279H207.403V202.507H235.543ZM290.156 232.957C291.836 230.017 293.761 227.707 295.931 226.027C298.136 224.347 300.656 223.507 303.491 223.507C305.941 223.507 307.936 224.085 309.476 225.24L308.426 237.21C308.251 237.98 307.954 238.505 307.534 238.785C307.149 239.065 306.606 239.205 305.906 239.205C305.626 239.205 305.259 239.187 304.804 239.152C304.349 239.117 303.876 239.082 303.386 239.047C302.896 238.977 302.389 238.925 301.864 238.89C301.374 238.82 300.919 238.785 300.499 238.785C298.119 238.785 296.211 239.415 294.776 240.675C293.376 241.935 292.186 243.685 291.206 245.925V279H274.931V224.557H284.591C285.396 224.557 286.061 224.627 286.586 224.768C287.146 224.907 287.601 225.135 287.951 225.45C288.336 225.73 288.616 226.115 288.791 226.605C289.001 227.095 289.176 227.69 289.316 228.39L290.156 232.957ZM342.599 256.845C339.344 256.985 336.667 257.265 334.567 257.685C332.467 258.105 330.804 258.63 329.579 259.26C328.354 259.89 327.497 260.607 327.007 261.412C326.552 262.217 326.324 263.092 326.324 264.037C326.324 265.892 326.832 267.205 327.847 267.975C328.862 268.71 330.349 269.077 332.309 269.077C334.409 269.077 336.247 268.71 337.822 267.975C339.397 267.24 340.989 266.05 342.599 264.405V256.845ZM313.304 232.117C316.594 229.212 320.234 227.06 324.224 225.66C328.249 224.225 332.554 223.507 337.139 223.507C340.429 223.507 343.387 224.05 346.012 225.135C348.672 226.185 350.912 227.672 352.732 229.597C354.587 231.487 356.004 233.745 356.984 236.37C357.964 238.995 358.454 241.865 358.454 244.98V279H350.999C349.459 279 348.287 278.79 347.482 278.37C346.712 277.95 346.064 277.075 345.539 275.745L344.384 272.752C343.019 273.907 341.707 274.922 340.447 275.797C339.187 276.672 337.874 277.425 336.509 278.055C335.179 278.65 333.744 279.088 332.204 279.368C330.699 279.683 329.019 279.84 327.164 279.84C324.679 279.84 322.422 279.525 320.392 278.895C318.362 278.23 316.629 277.267 315.194 276.007C313.794 274.747 312.709 273.19 311.939 271.335C311.169 269.445 310.784 267.275 310.784 264.825C310.784 262.865 311.274 260.887 312.254 258.892C313.234 256.862 314.932 255.025 317.347 253.38C319.762 251.7 323.017 250.3 327.112 249.18C331.207 248.06 336.369 247.43 342.599 247.29V244.98C342.599 241.795 341.934 239.502 340.604 238.102C339.309 236.667 337.454 235.95 335.039 235.95C333.114 235.95 331.539 236.16 330.314 236.58C329.089 237 327.987 237.472 327.007 237.997C326.062 238.522 325.134 238.995 324.224 239.415C323.314 239.835 322.229 240.045 320.969 240.045C319.849 240.045 318.904 239.765 318.134 239.205C317.364 238.645 316.734 237.98 316.244 237.21L313.304 232.117ZM383.872 230.437C384.922 229.457 386.007 228.547 387.127 227.707C388.247 226.867 389.437 226.167 390.697 225.607C391.992 225.012 393.375 224.557 394.845 224.242C396.35 223.892 397.977 223.717 399.727 223.717C402.702 223.717 405.327 224.242 407.602 225.292C409.912 226.307 411.855 227.742 413.43 229.597C415.005 231.417 416.195 233.605 417 236.16C417.805 238.68 418.207 241.427 418.207 244.402V279H401.932V244.402C401.932 241.742 401.32 239.677 400.095 238.207C398.87 236.702 397.067 235.95 394.687 235.95C392.902 235.95 391.222 236.335 389.647 237.105C388.107 237.84 386.602 238.855 385.132 240.15V279H368.857V224.557H378.937C380.967 224.557 382.297 225.467 382.927 227.287L383.872 230.437ZM461.763 239.152C460.538 237.787 459.208 236.842 457.773 236.317C456.338 235.757 454.833 235.477 453.258 235.477C451.753 235.477 450.37 235.775 449.11 236.37C447.85 236.965 446.748 237.927 445.803 239.257C444.893 240.552 444.175 242.25 443.65 244.35C443.125 246.45 442.863 248.987 442.863 251.962C442.863 254.832 443.073 257.247 443.493 259.207C443.913 261.167 444.49 262.76 445.225 263.985C445.995 265.175 446.905 266.032 447.955 266.557C449.005 267.082 450.178 267.345 451.473 267.345C452.663 267.345 453.73 267.24 454.675 267.03C455.655 266.785 456.548 266.452 457.353 266.032C458.158 265.612 458.91 265.087 459.61 264.457C460.345 263.792 461.063 263.04 461.763 262.2V239.152ZM478.038 200.407V279H467.958C465.928 279 464.598 278.09 463.968 276.27L462.708 272.122C461.623 273.277 460.485 274.327 459.295 275.272C458.105 276.217 456.81 277.04 455.41 277.74C454.045 278.405 452.558 278.912 450.948 279.263C449.373 279.648 447.658 279.84 445.803 279.84C442.968 279.84 440.343 279.21 437.928 277.95C435.513 276.69 433.43 274.87 431.68 272.49C429.93 270.11 428.548 267.205 427.533 263.775C426.553 260.31 426.063 256.372 426.063 251.962C426.063 247.902 426.623 244.14 427.743 240.675C428.863 237.175 430.438 234.165 432.468 231.645C434.533 229.09 437 227.095 439.87 225.66C442.74 224.225 445.908 223.507 449.373 223.507C452.208 223.507 454.588 223.91 456.513 224.715C458.438 225.52 460.188 226.605 461.763 227.97V200.407H478.038ZM523.631 236.475C523.211 237.14 522.756 237.612 522.266 237.892C521.811 238.172 521.216 238.312 520.481 238.312C519.711 238.312 518.941 238.155 518.171 237.84C517.401 237.49 516.561 237.122 515.651 236.737C514.776 236.352 513.778 236.002 512.658 235.687C511.538 235.337 510.261 235.162 508.826 235.162C506.761 235.162 505.168 235.565 504.048 236.37C502.963 237.14 502.421 238.225 502.421 239.625C502.421 240.64 502.771 241.48 503.471 242.145C504.206 242.81 505.168 243.405 506.358 243.93C507.548 244.42 508.896 244.892 510.401 245.347C511.906 245.802 513.446 246.31 515.021 246.87C516.596 247.43 518.136 248.095 519.641 248.865C521.146 249.6 522.493 250.527 523.683 251.647C524.873 252.732 525.818 254.062 526.518 255.637C527.253 257.212 527.621 259.102 527.621 261.307C527.621 264.002 527.131 266.487 526.151 268.762C525.171 271.037 523.701 272.997 521.741 274.642C519.816 276.287 517.418 277.565 514.548 278.475C511.713 279.385 508.441 279.84 504.731 279.84C502.876 279.84 501.021 279.665 499.166 279.315C497.311 278.965 495.508 278.492 493.758 277.897C492.043 277.302 490.451 276.602 488.981 275.797C487.511 274.957 486.251 274.065 485.201 273.12L488.981 267.135C489.401 266.435 489.926 265.892 490.556 265.508C491.221 265.087 492.061 264.877 493.076 264.877C494.021 264.877 494.861 265.087 495.596 265.508C496.366 265.927 497.188 266.382 498.063 266.872C498.938 267.362 499.953 267.817 501.108 268.237C502.298 268.657 503.786 268.867 505.571 268.867C506.831 268.867 507.898 268.745 508.773 268.5C509.648 268.22 510.348 267.852 510.873 267.397C511.398 266.942 511.783 266.435 512.028 265.875C512.273 265.315 512.396 264.737 512.396 264.142C512.396 263.057 512.028 262.165 511.293 261.465C510.558 260.765 509.596 260.17 508.406 259.68C507.216 259.155 505.851 258.682 504.311 258.262C502.806 257.807 501.266 257.3 499.691 256.74C498.116 256.18 496.558 255.515 495.018 254.745C493.513 253.94 492.166 252.942 490.976 251.752C489.786 250.527 488.823 249.04 488.088 247.29C487.353 245.54 486.986 243.422 486.986 240.937C486.986 238.627 487.423 236.44 488.298 234.375C489.208 232.275 490.556 230.437 492.341 228.862C494.126 227.287 496.366 226.045 499.061 225.135C501.756 224.19 504.906 223.717 508.511 223.717C510.471 223.717 512.361 223.892 514.181 224.242C516.036 224.592 517.768 225.082 519.378 225.712C520.988 226.342 522.458 227.095 523.788 227.97C525.118 228.81 526.291 229.737 527.306 230.752L523.631 236.475ZM238.535 365.152C237.31 363.787 235.98 362.842 234.545 362.317C233.11 361.757 231.605 361.477 230.03 361.477C228.525 361.477 227.143 361.775 225.883 362.37C224.623 362.965 223.52 363.927 222.575 365.257C221.665 366.552 220.948 368.25 220.423 370.35C219.898 372.45 219.635 374.987 219.635 377.962C219.635 380.832 219.845 383.247 220.265 385.207C220.685 387.167 221.263 388.76 221.998 389.985C222.768 391.175 223.678 392.032 224.728 392.557C225.778 393.082 226.95 393.345 228.245 393.345C229.435 393.345 230.503 393.24 231.448 393.03C232.428 392.785 233.32 392.452 234.125 392.032C234.93 391.612 235.683 391.087 236.383 390.457C237.118 389.792 237.835 389.04 238.535 388.2V365.152ZM254.81 326.407V405H244.73C242.7 405 241.37 404.09 240.74 402.27L239.48 398.122C238.395 399.277 237.258 400.327 236.068 401.272C234.878 402.217 233.583 403.04 232.183 403.74C230.818 404.405 229.33 404.912 227.72 405.263C226.145 405.648 224.43 405.84 222.575 405.84C219.74 405.84 217.115 405.21 214.7 403.95C212.285 402.69 210.203 400.87 208.453 398.49C206.703 396.11 205.32 393.205 204.305 389.775C203.325 386.31 202.835 382.372 202.835 377.962C202.835 373.902 203.395 370.14 204.515 366.675C205.635 363.175 207.21 360.165 209.24 357.645C211.305 355.09 213.773 353.095 216.643 351.66C219.513 350.225 222.68 349.507 226.145 349.507C228.98 349.507 231.36 349.91 233.285 350.715C235.21 351.52 236.96 352.605 238.535 353.97V326.407H254.81ZM290.9 349.717C295.03 349.717 298.793 350.365 302.188 351.66C305.583 352.955 308.488 354.81 310.903 357.225C313.353 359.64 315.243 362.58 316.573 366.045C317.938 369.475 318.62 373.342 318.62 377.647C318.62 381.987 317.938 385.907 316.573 389.407C315.243 392.872 313.353 395.83 310.903 398.28C308.488 400.695 305.583 402.567 302.188 403.897C298.793 405.192 295.03 405.84 290.9 405.84C286.735 405.84 282.938 405.192 279.508 403.897C276.113 402.567 273.173 400.695 270.688 398.28C268.238 395.83 266.33 392.872 264.965 389.407C263.635 385.907 262.97 381.987 262.97 377.647C262.97 373.342 263.635 369.475 264.965 366.045C266.33 362.58 268.238 359.64 270.688 357.225C273.173 354.81 276.113 352.955 279.508 351.66C282.938 350.365 286.735 349.717 290.9 349.717ZM290.9 393.765C294.645 393.765 297.393 392.452 299.143 389.827C300.928 387.167 301.82 383.142 301.82 377.752C301.82 372.362 300.928 368.355 299.143 365.73C297.393 363.105 294.645 361.792 290.9 361.792C287.05 361.792 284.233 363.105 282.448 365.73C280.663 368.355 279.77 372.362 279.77 377.752C279.77 383.142 280.663 387.167 282.448 389.827C284.233 392.452 287.05 393.765 290.9 393.765ZM341.831 356.437C342.881 355.457 343.966 354.547 345.086 353.707C346.206 352.867 347.396 352.167 348.656 351.607C349.951 351.012 351.334 350.557 352.804 350.242C354.309 349.892 355.936 349.717 357.686 349.717C360.661 349.717 363.286 350.242 365.561 351.292C367.871 352.307 369.814 353.742 371.389 355.597C372.964 357.417 374.154 359.605 374.959 362.16C375.764 364.68 376.166 367.427 376.166 370.402V405H359.891V370.402C359.891 367.742 359.279 365.677 358.054 364.207C356.829 362.702 355.026 361.95 352.646 361.95C350.861 361.95 349.181 362.335 347.606 363.105C346.066 363.84 344.561 364.855 343.091 366.15V405H326.816V350.557H336.896C338.926 350.557 340.256 351.467 340.886 353.287L341.831 356.437ZM396.236 323.467C398.126 326.477 399.403 329.575 400.068 332.76C400.733 335.945 400.768 339.095 400.173 342.21C399.613 345.29 398.441 348.247 396.656 351.082C394.871 353.917 392.491 356.49 389.516 358.8L384.371 355.755C383.916 355.51 383.601 355.212 383.426 354.862C383.251 354.477 383.163 354.11 383.163 353.76C383.198 353.375 383.286 353.025 383.426 352.71C383.601 352.36 383.811 352.062 384.056 351.817C384.441 351.397 384.861 350.82 385.316 350.085C385.771 349.35 386.191 348.492 386.576 347.512C386.961 346.532 387.258 345.465 387.468 344.31C387.713 343.12 387.801 341.877 387.731 340.582C387.661 339.252 387.416 337.887 386.996 336.487C386.576 335.052 385.893 333.6 384.948 332.13C384.178 330.905 383.968 329.855 384.318 328.98C384.703 328.105 385.421 327.475 386.471 327.09L396.236 323.467ZM428.53 405.84C425.94 405.84 423.648 405.473 421.653 404.737C419.693 403.967 418.03 402.9 416.665 401.535C415.335 400.135 414.32 398.455 413.62 396.495C412.92 394.535 412.57 392.347 412.57 389.932V361.792H407.95C407.11 361.792 406.393 361.53 405.798 361.005C405.203 360.445 404.905 359.64 404.905 358.59V352.238L413.568 350.557L416.77 337.275C417.19 335.595 418.38 334.755 420.34 334.755H428.845V350.662H442.338V361.792H428.845V388.83C428.845 390.09 429.143 391.14 429.738 391.98C430.368 392.785 431.26 393.187 432.415 393.187C433.01 393.187 433.5 393.135 433.885 393.03C434.305 392.89 434.655 392.75 434.935 392.61C435.25 392.435 435.53 392.295 435.775 392.19C436.055 392.05 436.37 391.98 436.72 391.98C437.21 391.98 437.595 392.102 437.875 392.347C438.19 392.557 438.505 392.907 438.82 393.397L443.755 401.115C441.655 402.69 439.293 403.88 436.668 404.685C434.043 405.455 431.33 405.84 428.53 405.84ZM238.535 491.152C237.31 489.787 235.98 488.842 234.545 488.317C233.11 487.757 231.605 487.477 230.03 487.477C228.525 487.477 227.143 487.775 225.883 488.37C224.623 488.965 223.52 489.927 222.575 491.257C221.665 492.552 220.948 494.25 220.423 496.35C219.898 498.45 219.635 500.987 219.635 503.962C219.635 506.832 219.845 509.247 220.265 511.207C220.685 513.167 221.263 514.76 221.998 515.985C222.768 517.175 223.678 518.032 224.728 518.557C225.778 519.082 226.95 519.345 228.245 519.345C229.435 519.345 230.503 519.24 231.448 519.03C232.428 518.785 233.32 518.452 234.125 518.032C234.93 517.612 235.683 517.087 236.383 516.457C237.118 515.792 237.835 515.04 238.535 514.2V491.152ZM254.81 452.407V531H244.73C242.7 531 241.37 530.09 240.74 528.27L239.48 524.122C238.395 525.277 237.258 526.327 236.068 527.272C234.878 528.217 233.583 529.04 232.183 529.74C230.818 530.405 229.33 530.912 227.72 531.263C226.145 531.648 224.43 531.84 222.575 531.84C219.74 531.84 217.115 531.21 214.7 529.95C212.285 528.69 210.203 526.87 208.453 524.49C206.703 522.11 205.32 519.205 204.305 515.775C203.325 512.31 202.835 508.372 202.835 503.962C202.835 499.902 203.395 496.14 204.515 492.675C205.635 489.175 207.21 486.165 209.24 483.645C211.305 481.09 213.773 479.095 216.643 477.66C219.513 476.225 222.68 475.507 226.145 475.507C228.98 475.507 231.36 475.91 233.285 476.715C235.21 477.52 236.96 478.605 238.535 479.97V452.407H254.81ZM282.448 476.557V531H266.173V476.557H282.448ZM284.128 461.647C284.128 462.942 283.865 464.167 283.34 465.322C282.815 466.442 282.098 467.44 281.188 468.315C280.278 469.155 279.21 469.837 277.985 470.362C276.795 470.852 275.518 471.097 274.153 471.097C272.823 471.097 271.58 470.852 270.425 470.362C269.27 469.837 268.238 469.155 267.328 468.315C266.453 467.44 265.753 466.442 265.228 465.322C264.738 464.167 264.493 462.942 264.493 461.647C264.493 460.317 264.738 459.075 265.228 457.92C265.753 456.765 266.453 455.75 267.328 454.875C268.238 454 269.27 453.317 270.425 452.827C271.58 452.337 272.823 452.092 274.153 452.092C275.518 452.092 276.795 452.337 277.985 452.827C279.21 453.317 280.278 454 281.188 454.875C282.098 455.75 282.815 456.765 283.34 457.92C283.865 459.075 284.128 460.317 284.128 461.647ZM327.661 497.242C327.661 495.947 327.486 494.687 327.136 493.462C326.821 492.237 326.279 491.152 325.509 490.207C324.774 489.227 323.794 488.44 322.569 487.845C321.344 487.25 319.856 486.952 318.106 486.952C315.026 486.952 312.611 487.845 310.861 489.63C309.111 491.38 307.956 493.917 307.396 497.242H327.661ZM307.186 506.692C307.711 511.242 309.094 514.55 311.334 516.615C313.574 518.645 316.461 519.66 319.996 519.66C321.886 519.66 323.514 519.432 324.879 518.977C326.244 518.522 327.451 518.015 328.501 517.455C329.586 516.895 330.566 516.387 331.441 515.932C332.351 515.477 333.296 515.25 334.276 515.25C335.571 515.25 336.551 515.722 337.216 516.667L341.941 522.495C340.261 524.42 338.441 525.995 336.481 527.22C334.556 528.41 332.561 529.355 330.496 530.055C328.466 530.72 326.419 531.175 324.354 531.42C322.324 531.7 320.381 531.84 318.526 531.84C314.711 531.84 311.124 531.228 307.764 530.002C304.439 528.742 301.516 526.887 298.996 524.438C296.511 521.987 294.534 518.942 293.064 515.302C291.629 511.662 290.911 507.427 290.911 502.597C290.911 498.957 291.524 495.51 292.749 492.255C294.009 489 295.794 486.147 298.104 483.697C300.449 481.247 303.266 479.305 306.556 477.87C309.881 476.435 313.626 475.717 317.791 475.717C321.396 475.717 324.686 476.277 327.661 477.397C330.671 478.517 333.244 480.145 335.379 482.28C337.549 484.415 339.229 487.04 340.419 490.155C341.644 493.235 342.256 496.735 342.256 500.655C342.256 501.88 342.204 502.877 342.099 503.647C341.994 504.417 341.801 505.03 341.521 505.485C341.241 505.94 340.856 506.255 340.366 506.43C339.911 506.605 339.316 506.692 338.581 506.692H307.186ZM348.195 522.757C348.195 521.497 348.423 520.325 348.878 519.24C349.368 518.155 350.015 517.21 350.82 516.405C351.66 515.6 352.64 514.97 353.76 514.515C354.88 514.025 356.105 513.78 357.435 513.78C358.73 513.78 359.938 514.025 361.058 514.515C362.178 514.97 363.158 515.6 363.998 516.405C364.838 517.21 365.485 518.155 365.94 519.24C366.43 520.325 366.675 521.497 366.675 522.757C366.675 524.017 366.43 525.207 365.94 526.327C365.485 527.412 364.838 528.357 363.998 529.162C363.158 529.967 362.178 530.597 361.058 531.053C359.938 531.508 358.73 531.735 357.435 531.735C356.105 531.735 354.88 531.508 353.76 531.053C352.64 530.597 351.66 529.967 350.82 529.162C350.015 528.357 349.368 527.412 348.878 526.327C348.423 525.207 348.195 524.017 348.195 522.757ZM373.317 522.757C373.317 521.497 373.545 520.325 374 519.24C374.49 518.155 375.137 517.21 375.942 516.405C376.782 515.6 377.762 514.97 378.882 514.515C380.002 514.025 381.227 513.78 382.557 513.78C383.852 513.78 385.06 514.025 386.18 514.515C387.3 514.97 388.28 515.6 389.12 516.405C389.96 517.21 390.607 518.155 391.062 519.24C391.552 520.325 391.797 521.497 391.797 522.757C391.797 524.017 391.552 525.207 391.062 526.327C390.607 527.412 389.96 528.357 389.12 529.162C388.28 529.967 387.3 530.597 386.18 531.053C385.06 531.508 383.852 531.735 382.557 531.735C381.227 531.735 380.002 531.508 378.882 531.053C377.762 530.597 376.782 529.967 375.942 529.162C375.137 528.357 374.49 527.412 374 526.327C373.545 525.207 373.317 524.017 373.317 522.757ZM398.439 522.757C398.439 521.497 398.667 520.325 399.122 519.24C399.612 518.155 400.259 517.21 401.064 516.405C401.904 515.6 402.884 514.97 404.004 514.515C405.124 514.025 406.349 513.78 407.679 513.78C408.974 513.78 410.182 514.025 411.302 514.515C412.422 514.97 413.402 515.6 414.242 516.405C415.082 517.21 415.729 518.155 416.184 519.24C416.674 520.325 416.919 521.497 416.919 522.757C416.919 524.017 416.674 525.207 416.184 526.327C415.729 527.412 415.082 528.357 414.242 529.162C413.402 529.967 412.422 530.597 411.302 531.053C410.182 531.508 408.974 531.735 407.679 531.735C406.349 531.735 405.124 531.508 404.004 531.053C402.884 530.597 401.904 529.967 401.064 529.162C400.259 528.357 399.612 527.412 399.122 526.327C398.667 525.207 398.439 524.017 398.439 522.757Z" fill="#1D976C"/>
<path d="M717.21 266.77V248.5H778.845V266.77H758.265V322H737.79V266.77H717.21ZM816.104 292.6C816.104 290.08 815.684 288.19 814.844 286.825C814.004 285.46 812.324 284.725 810.014 284.725C807.809 284.725 806.024 285.46 804.764 286.72C803.504 287.98 802.874 289.975 802.874 292.6V322H784.709V240.1H802.874V280C804.239 277.48 806.129 275.485 808.544 274.015C810.959 272.545 814.004 271.705 817.784 271.705C824.084 271.705 828.389 273.28 830.804 276.43C833.114 279.58 834.374 284.095 834.374 289.87V322H816.104V292.6ZM861.259 301.63C861.889 304.675 863.149 306.88 865.249 308.245C867.244 309.61 869.449 310.24 871.864 310.24C876.694 310.24 879.949 308.56 881.629 304.99L897.589 308.77C895.384 313.075 892.339 316.54 888.349 319.165C884.359 321.79 878.899 323.05 872.074 323.05C865.984 323.05 860.839 322 856.639 319.795C852.334 317.695 849.079 314.65 846.874 310.87C844.564 307.09 843.514 302.68 843.514 297.85C843.514 297.01 843.514 296.065 843.619 295.225C843.619 294.385 843.724 293.44 843.934 292.6C844.879 286.72 847.714 281.89 852.544 278.215C857.269 274.54 863.569 272.65 871.444 272.65C879.634 272.65 886.039 274.855 890.659 279.16C895.279 283.465 897.694 289.45 897.694 297.01V298.9C897.694 299.74 897.589 300.685 897.484 301.63H861.259ZM861.574 291.97H879.424C878.899 289.555 877.954 287.77 876.694 286.615C875.329 285.46 873.439 284.83 871.024 284.83C868.504 284.83 866.509 285.46 864.829 286.615C863.149 287.875 862.099 289.66 861.574 291.97ZM958.52 273.7L927.02 345.1H908.96L920.3 319.06L898.67 273.7H918.41L929.33 300.685L940.04 273.7H958.52ZM1050.39 469.02C1050.39 466.08 1051.44 463.56 1053.54 461.355C1055.64 459.255 1058.27 458.1 1061.52 458.1C1064.78 458.1 1067.51 459.255 1069.61 461.355C1071.71 463.56 1072.76 466.08 1072.76 469.02C1072.76 471.96 1071.71 474.585 1069.61 476.685C1067.51 478.785 1064.78 479.835 1061.52 479.835C1058.27 479.835 1055.64 478.785 1053.54 476.685C1051.44 474.585 1050.39 471.96 1050.39 469.02Z" fill="black"/>
<path d="M738.315 456.63C738.945 459.675 740.205 461.88 742.305 463.245C744.3 464.61 746.505 465.24 748.92 465.24C753.75 465.24 757.005 463.56 758.685 459.99L774.645 463.77C772.44 468.075 769.395 471.54 765.405 474.165C761.415 476.79 755.955 478.05 749.13 478.05C743.04 478.05 737.895 477 733.695 474.795C729.39 472.695 726.135 469.65 723.93 465.87C721.62 462.09 720.57 457.68 720.57 452.85C720.57 452.01 720.57 451.065 720.675 450.225C720.675 449.385 720.78 448.44 720.99 447.6C721.935 441.72 724.77 436.89 729.6 433.215C734.325 429.54 740.625 427.65 748.5 427.65C756.69 427.65 763.095 429.855 767.715 434.16C772.335 438.465 774.75 444.45 774.75 452.01V453.9C774.75 454.74 774.645 455.685 774.54 456.63H738.315ZM738.63 446.97H756.48C755.955 444.555 755.01 442.77 753.75 441.615C752.385 440.46 750.495 439.83 748.08 439.83C745.56 439.83 743.565 440.46 741.885 441.615C740.205 442.875 739.155 444.66 738.63 446.97ZM776.565 428.7H795.885L806.07 453.27L816.255 428.7H835.575L806.07 483.3L776.565 428.7ZM855.534 452.85C855.534 456.21 856.479 458.835 858.369 460.62C860.259 462.51 862.569 463.35 865.194 463.35C867.819 463.35 870.129 462.51 872.019 460.62C873.909 458.835 874.854 456.21 874.854 452.85C874.854 449.49 873.909 446.97 872.019 445.08C870.129 443.19 867.819 442.245 865.194 442.245C862.569 442.245 860.259 443.19 858.369 445.08C856.479 446.97 855.534 449.49 855.534 452.85ZM836.739 452.85C836.739 447.705 837.894 443.19 840.414 439.41C842.934 435.63 846.294 432.795 850.599 430.695C854.904 428.7 859.734 427.65 865.194 427.65C870.654 427.65 875.484 428.7 879.789 430.695C883.989 432.795 887.349 435.63 889.869 439.41C892.284 443.19 893.544 447.705 893.544 452.85C893.544 458.1 892.284 462.51 889.869 466.29C887.349 470.07 883.989 473.01 879.789 475.005C875.484 477.105 870.654 478.05 865.194 478.05C859.734 478.05 854.904 477.105 850.599 475.005C846.294 473.01 842.934 470.07 840.414 466.29C837.894 462.51 836.739 458.1 836.739 452.85ZM902.423 395.1H920.588V477H902.423V395.1ZM925.862 428.7H945.182L955.367 453.27L965.552 428.7H984.872L955.367 483.3L925.862 428.7ZM1004.1 456.63C1004.73 459.675 1005.99 461.88 1008.09 463.245C1010.08 464.61 1012.29 465.24 1014.7 465.24C1019.53 465.24 1022.79 463.56 1024.47 459.99L1040.43 463.77C1038.22 468.075 1035.18 471.54 1031.19 474.165C1027.2 476.79 1021.74 478.05 1014.91 478.05C1008.82 478.05 1003.68 477 999.476 474.795C995.171 472.695 991.916 469.65 989.711 465.87C987.401 462.09 986.351 457.68 986.351 452.85C986.351 452.01 986.351 451.065 986.456 450.225C986.456 449.385 986.561 448.44 986.771 447.6C987.716 441.72 990.551 436.89 995.381 433.215C1000.11 429.54 1006.41 427.65 1014.28 427.65C1022.47 427.65 1028.88 429.855 1033.5 434.16C1038.12 438.465 1040.53 444.45 1040.53 452.01V453.9C1040.53 454.74 1040.43 455.685 1040.32 456.63H1004.1ZM1004.41 446.97H1022.26C1021.74 444.555 1020.79 442.77 1019.53 441.615C1018.17 440.46 1016.28 439.83 1013.86 439.83C1011.34 439.83 1009.35 440.46 1007.67 441.615C1005.99 442.875 1004.94 444.66 1004.41 446.97Z" fill="#1D976C"/>
<path d="M103.5 561C79.5 523.8 25.1667 499.833 1 492.5H0V720.5C95.5 723.167 273.6 726.9 222 720.5C157.5 712.5 133.5 607.5 103.5 561Z" fill="url(#paint0_linear)"/>
<path d="M103.5 561C79.5 523.8 25.1667 499.833 1 492.5H0V720.5C95.5 723.167 273.6 726.9 222 720.5C157.5 712.5 133.5 607.5 103.5 561Z" fill="url(#paint1_linear)"/>
<g style="mix-blend-mode:soft-light" opacity="0.35">
<path d="M62.2263 626.124C47.797 603.791 15.1307 589.403 0.601221 585H0V721.879C57.4166 723.479 164.494 725.721 133.471 721.879C94.6923 717.076 80.263 654.04 62.2263 626.124Z" fill="url(#paint2_linear)"/>
</g>
<g style="mix-blend-mode:screen" opacity="0.15">
<path d="M126 586C83.5 568.5 27.7578 477.077 1.10296 469H0V720.108C105.333 723.045 321.913 727.157 265 720.108C193.859 711.297 182.38 609.215 126 586Z" fill="url(#paint3_linear)"/>
</g>
<rect x="1204" y="421" width="17" height="188" fill="#2F323A"/>
<rect x="1186" y="449" width="27" height="295" fill="#1D976C"/>
<rect x="-98" y="-33.4143" width="201.286" height="175.954" transform="rotate(-34.0096 -98 -33.4143)" fill="#2F323A"/>
<path d="M1078.61 51.3219C1077.81 47.893 1076.38 44.7053 1074.38 41.8473C1072.3 38.8878 1069.69 36.4139 1066.62 34.4947C1062.4 31.8609 1057.57 30.4688 1052.65 30.4688C1048.16 30.4688 1043.71 31.623 1039.78 33.8069C1037.79 34.9152 1035.94 36.2794 1034.29 37.8619C1032.59 39.493 1031.1 41.3556 1029.86 43.3981C1027.97 46.5192 1026.74 49.9235 1026.2 53.5167C1025.68 56.9865 1025.83 60.4844 1026.63 63.9133C1027.44 67.3421 1028.86 70.5298 1030.87 73.3878C1032.94 76.3474 1035.55 78.8212 1038.63 80.7404C1042.84 83.3742 1047.67 84.7664 1052.6 84.7664C1057.08 84.7664 1061.53 83.6121 1065.46 81.4282C1067.46 80.32 1069.3 78.9557 1070.95 77.3732C1072.65 75.7422 1074.14 73.8795 1075.38 71.837C1077.27 68.7159 1078.5 65.3116 1079.04 61.7184C1079.56 58.2486 1079.42 54.7507 1078.61 51.3219ZM1029.26 63.2778C1027.77 56.9367 1028.8 50.3863 1032.16 44.8334C1033.93 41.9144 1036.22 39.4678 1038.87 37.5833C1038.76 37.7445 1038.64 37.9072 1038.54 38.0731C1037.39 39.8337 1036.6 41.7796 1036.19 43.8565C1035.78 45.9334 1035.77 48.0376 1036.16 50.1104C1036.56 52.2573 1037.37 54.2753 1038.57 56.1085L1040.99 59.8005L1043.23 58.2826L1040.81 54.5906C1038.84 51.5718 1038.13 47.9513 1038.84 44.3961C1039.54 40.8409 1041.56 37.7766 1044.54 35.7677C1047.51 33.7587 1051.07 33.0458 1054.57 33.7599C1058.07 34.474 1061.08 36.5299 1063.06 39.5488L1064.91 42.3645L1058.99 46.3665L1057.07 43.4366C1055.12 40.4579 1051.14 39.6471 1048.21 41.6294C1046.79 42.5896 1045.82 44.0543 1045.49 45.7536C1045.15 47.4529 1045.49 49.1834 1046.43 50.6264L1056.55 66.0748C1057.1 66.9086 1057.29 67.9084 1057.1 68.8902C1056.9 69.872 1056.34 70.7182 1055.52 71.273C1054.7 71.8278 1053.72 72.0247 1052.75 71.8275C1051.79 71.6303 1050.95 71.0625 1050.41 70.2288L1046.97 65.0221L1036.59 72.0557L1039.92 77.1525C1040.43 77.9225 1040.99 78.6399 1041.6 79.3032C1041.07 79.0247 1040.55 78.7261 1040.04 78.4065C1034.57 74.9918 1030.74 69.619 1029.26 63.2778ZM1073.08 70.4018C1071.29 73.3569 1068.97 75.8285 1066.28 77.7222C1066.42 77.5217 1066.56 77.318 1066.69 77.1102C1067.84 75.3496 1068.63 73.4038 1069.04 71.3269C1069.45 69.2499 1069.46 67.1458 1069.07 65.0729C1068.67 62.9261 1067.86 60.908 1066.66 59.0748L1064.09 55.1545L1061.85 56.6725L1064.42 60.5927C1066.39 63.6116 1067.1 67.2321 1066.39 70.7873C1065.69 74.3425 1063.67 77.4068 1060.7 79.4157C1058.48 80.9161 1055.93 81.6937 1053.32 81.6936C1052.44 81.6936 1051.55 81.6043 1050.66 81.4235C1047.16 80.7094 1044.15 78.6535 1042.17 75.6346L1040.32 72.8189C1041.88 71.7651 1044.69 69.8703 1046.24 68.8169L1048.16 71.7468C1049.11 73.1897 1050.55 74.1724 1052.22 74.5137C1053.89 74.8551 1055.6 74.5142 1057.02 73.554C1059.95 71.5719 1060.75 67.5358 1058.8 64.557L1048.68 49.1085C1048.13 48.2748 1047.94 47.275 1048.13 46.2932C1048.33 45.3114 1048.89 44.4651 1049.71 43.9103C1051.4 42.7651 1053.7 43.2335 1054.82 44.9545L1058.24 50.1654L1068.64 43.1276L1065.31 38.0309C1064.82 37.2942 1064.29 36.6057 1063.71 35.9666C1064.21 36.2352 1064.71 36.5223 1065.2 36.8286C1076.49 43.8778 1080.02 58.9387 1073.08 70.4018Z" fill="#1D976C"/>
</g>
<defs>
<linearGradient id="paint0_linear" x1="4.5" y1="525.5" x2="357.743" y2="636.993" gradientUnits="userSpaceOnUse">
<stop stop-color="#1D976C"/>
<stop offset="1" stop-color="#86E3A9"/>
</linearGradient>
<linearGradient id="paint1_linear" x1="4.5" y1="525.5" x2="357.743" y2="636.993" gradientUnits="userSpaceOnUse">
<stop stop-color="#1D976C"/>
<stop offset="1" stop-color="#86E3A9"/>
</linearGradient>
<linearGradient id="paint2_linear" x1="67.2166" y1="647.911" x2="155.256" y2="689.985" gradientUnits="userSpaceOnUse">
<stop stop-color="#86E3A9"/>
<stop offset="1" stop-color="#1D976C"/>
</linearGradient>
<linearGradient id="paint3_linear" x1="4.96332" y1="505.345" x2="394.473" y2="628.464" gradientUnits="userSpaceOnUse">
<stop stop-color="#1D976C"/>
<stop offset="1" stop-color="#86E3A9"/>
</linearGradient>
<clipPath id="clip0">
<rect width="1280" height="720" fill="white"/>
</clipPath>
<clipPath id="clip1">
<rect width="55" height="55" fill="white" transform="translate(200 30)"/>
</clipPath>
</defs>
</svg>
